<svg width="224" height="31" viewBox="0 0 224 31" fill="none" xmlns="http://www.w3.org/2000/svg">
<path d="M7.3473 30L0.699574 8.18182H4.2223L8.93821 24.8864H9.16548L13.8246 8.18182H17.4041L22.0064 24.8295H22.2337L26.9496 8.18182H30.4723L23.8246 30H20.5291L15.7564 13.2386H15.4155L10.6428 30H7.3473ZM38.2564 16.875V30H34.9041V0.90909H38.2564V11.5909H38.5405C39.0518 10.464 39.8189 9.56913 40.8416 8.90625C41.8738 8.2339 43.2469 7.89773 44.9609 7.89773C46.4477 7.89773 47.7498 8.19602 48.8672 8.79261C49.9846 9.37973 50.8511 10.2841 51.4666 11.5057C52.0916 12.7178 52.4041 14.2614 52.4041 16.1364V30H49.0518V16.3636C49.0518 14.6307 48.602 13.2907 47.7024 12.3438C46.8123 11.3873 45.5765 10.9091 43.995 10.9091C42.8965 10.9091 41.9117 11.1411 41.0405 11.6051C40.1787 12.0691 39.4969 12.7462 38.995 13.6364C38.5026 14.5265 38.2564 15.6061 38.2564 16.875ZM64.9574 30.5114C63.5748 30.5114 62.3201 30.2509 61.1932 29.7301C60.0663 29.1998 59.1714 28.4375 58.5085 27.4432C57.8456 26.4394 57.5142 25.2273 57.5142 23.8068C57.5142 22.5568 57.7604 21.5436 58.2528 20.767C58.7453 19.9811 59.4034 19.3655 60.2273 18.9205C61.0511 18.4754 61.9602 18.1439 62.9545 17.9261C63.9583 17.6989 64.9669 17.5189 65.9801 17.3864C67.3059 17.2159 68.3807 17.0881 69.2045 17.0028C70.0379 16.9081 70.6439 16.7519 71.0227 16.5341C71.411 16.3163 71.6051 15.9375 71.6051 15.3977V15.2841C71.6051 13.8826 71.2216 12.7936 70.4545 12.017C69.697 11.2405 68.5464 10.8523 67.0028 10.8523C65.4025 10.8523 64.1477 11.2027 63.2386 11.9034C62.3295 12.6042 61.6903 13.3523 61.321 14.1477L58.1392 13.0114C58.7074 11.6856 59.465 10.6534 60.4119 9.91477C61.3684 9.16667 62.41 8.64583 63.5369 8.35227C64.6733 8.04924 65.7907 7.89773 66.8892 7.89773C67.59 7.89773 68.3949 7.98295 69.304 8.15341C70.2225 8.31439 71.108 8.65057 71.9602 9.16193C72.822 9.6733 73.5369 10.4451 74.1051 11.4773C74.6733 12.5095 74.9574 13.892 74.9574 15.625V30H71.6051V27.0455H71.4347C71.2074 27.5189 70.8286 28.0256 70.2983 28.5653C69.768 29.1051 69.0625 29.5644 68.1818 29.9432C67.3011 30.322 66.2263 30.5114 64.9574 30.5114ZM65.4688 27.5C66.7945 27.5 67.9119 27.2396 68.821 26.7188C69.7396 26.1979 70.4309 25.5256 70.8949 24.7017C71.3684 23.8778 71.6051 23.0114 71.6051 22.1023V19.0341C71.4631 19.2045 71.1506 19.3608 70.6676 19.5028C70.1941 19.6354 69.6449 19.7538 69.0199 19.858C68.4044 19.9527 67.803 20.0379 67.2159 20.1136C66.6383 20.1799 66.1695 20.2367 65.8097 20.2841C64.9384 20.3977 64.1241 20.5824 63.3665 20.8381C62.6184 21.0843 62.0123 21.4583 61.5483 21.9602C61.0938 22.4527 60.8665 23.125 60.8665 23.9773C60.8665 25.142 61.2973 26.0227 62.1591 26.6193C63.0303 27.2064 64.1335 27.5 65.4688 27.5ZM90.5646 8.18182V11.0227H79.2578V8.18182H90.5646ZM82.5533 2.95455H85.9055V23.75C85.9055 24.697 86.0429 25.4072 86.3175 25.8807C86.6016 26.3447 86.9614 26.6572 87.397 26.8182C87.8421 26.9697 88.3108 27.0455 88.8033 27.0455C89.1726 27.0455 89.4756 27.0265 89.7124 26.9886C89.9491 26.9413 90.1385 26.9034 90.2805 26.875L90.9624 29.8864C90.7351 29.9716 90.4179 30.0568 90.0107 30.142C89.6035 30.2367 89.0874 30.2841 88.4624 30.2841C87.5154 30.2841 86.5874 30.0805 85.6783 29.6733C84.7786 29.2661 84.0305 28.6458 83.4339 27.8125C82.8468 26.9792 82.5533 25.928 82.5533 24.6591V2.95455ZM116.346 8.18182V11.0227H105.039V8.18182H116.346ZM108.335 2.95455H111.687V23.75C111.687 24.697 111.824 25.4072 112.099 25.8807C112.383 26.3447 112.743 26.6572 113.178 26.8182C113.623 26.9697 114.092 27.0455 114.585 27.0455C114.954 27.0455 115.257 27.0265 115.494 26.9886C115.73 26.9413 115.92 26.9034 116.062 26.875L116.744 29.8864C116.516 29.9716 116.199 30.0568 115.792 30.142C115.385 30.2367 114.869 30.2841 114.244 30.2841C113.297 30.2841 112.369 30.0805 111.46 29.6733C110.56 29.2661 109.812 28.6458 109.215 27.8125C108.628 26.9792 108.335 25.928 108.335 24.6591V2.95455ZM130.018 30.4545C128.048 30.4545 126.32 29.9858 124.833 29.0483C123.356 28.1108 122.201 26.7992 121.367 25.1136C120.543 23.428 120.131 21.4583 120.131 19.2045C120.131 16.9318 120.543 14.9479 121.367 13.2528C122.201 11.5578 123.356 10.2415 124.833 9.30398C126.32 8.36648 128.048 7.89773 130.018 7.89773C131.987 7.89773 133.711 8.36648 135.188 9.30398C136.675 10.2415 137.83 11.5578 138.654 13.2528C139.487 14.9479 139.904 16.9318 139.904 19.2045C139.904 21.4583 139.487 23.428 138.654 25.1136C137.83 26.7992 136.675 28.1108 135.188 29.0483C133.711 29.9858 131.987 30.4545 130.018 30.4545ZM130.018 27.4432C131.514 27.4432 132.745 27.0597 133.711 26.2926C134.677 25.5256 135.392 24.517 135.856 23.267C136.32 22.017 136.552 20.6629 136.552 19.2045C136.552 17.7462 136.32 16.3873 135.856 15.1278C135.392 13.8684 134.677 12.8504 133.711 12.0739C132.745 11.2973 131.514 10.9091 130.018 10.9091C128.522 10.9091 127.29 11.2973 126.325 12.0739C125.359 12.8504 124.644 13.8684 124.18 15.1278C123.716 16.3873 123.484 17.7462 123.484 19.2045C123.484 20.6629 123.716 22.017 124.18 23.267C124.644 24.517 125.359 25.5256 126.325 26.2926C127.29 27.0597 128.522 27.4432 130.018 27.4432ZM163.658 30.3551C162 30.3551 160.5 29.929 159.155 29.0767C157.82 28.215 156.759 26.9508 155.973 25.2841C155.196 23.608 154.808 21.553 154.808 19.1193C154.808 16.6193 155.211 14.5407 156.016 12.8835C156.821 11.2169 157.891 9.97159 159.226 9.14773C160.571 8.31439 162.043 7.89773 163.643 7.89773C164.865 7.89773 165.883 8.10606 166.697 8.52273C167.521 8.92992 168.184 9.44129 168.686 10.0568C169.197 10.6629 169.586 11.2595 169.851 11.8466H170.036V0.90909H176.072V30H170.107V26.5057H169.851C169.567 27.1117 169.164 27.7131 168.643 28.3097C168.132 28.8968 167.464 29.3845 166.641 29.7727C165.826 30.161 164.832 30.3551 163.658 30.3551ZM165.575 25.5398C166.551 25.5398 167.375 25.2746 168.047 24.7443C168.729 24.2045 169.25 23.4517 169.609 22.4858C169.979 21.5199 170.163 20.3883 170.163 19.0909C170.163 17.7936 169.983 16.6667 169.624 15.7102C169.264 14.7538 168.743 14.0152 168.061 13.4943C167.379 12.9735 166.551 12.7131 165.575 12.7131C164.581 12.7131 163.743 12.983 163.061 13.5227C162.379 14.0625 161.863 14.8106 161.513 15.767C161.162 16.7235 160.987 17.8314 160.987 19.0909C160.987 20.3598 161.162 21.482 161.513 22.4574C161.873 23.4233 162.389 24.1809 163.061 24.7301C163.743 25.2699 164.581 25.5398 165.575 25.5398ZM190.906 30.4261C188.699 30.4261 186.791 29.9574 185.181 29.0199C183.581 28.0729 182.345 26.7566 181.474 25.071C180.603 23.3759 180.167 21.411 180.167 19.1761C180.167 16.9223 180.603 14.9527 181.474 13.267C182.345 11.572 183.581 10.2557 185.181 9.31818C186.791 8.37121 188.699 7.89773 190.906 7.89773C193.112 7.89773 195.015 8.37121 196.616 9.31818C198.226 10.2557 199.466 11.572 200.337 13.267C201.209 14.9527 201.644 16.9223 201.644 19.1761C201.644 21.411 201.209 23.3759 200.337 25.071C199.466 26.7566 198.226 28.0729 196.616 29.0199C195.015 29.9574 193.112 30.4261 190.906 30.4261ZM190.934 25.7386C191.938 25.7386 192.776 25.4545 193.448 24.8864C194.121 24.3087 194.627 23.5227 194.968 22.5284C195.318 21.5341 195.494 20.4025 195.494 19.1335C195.494 17.8646 195.318 16.733 194.968 15.7386C194.627 14.7443 194.121 13.9583 193.448 13.3807C192.776 12.803 191.938 12.5142 190.934 12.5142C189.921 12.5142 189.068 12.803 188.377 13.3807C187.695 13.9583 187.179 14.7443 186.829 15.7386C186.488 16.733 186.317 17.8646 186.317 19.1335C186.317 20.4025 186.488 21.5341 186.829 22.5284C187.179 23.5227 187.695 24.3087 188.377 24.8864C189.068 25.4545 189.921 25.7386 190.934 25.7386Z" fill="white"/>
<path d="M210.778 21.2784V20.7955C210.787 19.1383 210.934 17.8172 211.218 16.8324C211.512 15.8475 211.938 15.0521 212.496 14.446C213.055 13.84 213.728 13.2907 214.513 12.7983C215.101 12.4195 215.626 12.0265 216.09 11.6193C216.554 11.2121 216.924 10.7623 217.198 10.2699C217.473 9.76799 217.61 9.20928 217.61 8.59375C217.61 7.94034 217.454 7.36742 217.141 6.875C216.829 6.38258 216.407 6.00379 215.877 5.73864C215.356 5.47348 214.779 5.34091 214.144 5.34091C213.529 5.34091 212.946 5.47822 212.397 5.75284C211.848 6.01799 211.398 6.41572 211.048 6.94602C210.697 7.46686 210.508 8.11553 210.479 8.89205H204.684C204.731 6.99811 205.186 5.43561 206.048 4.20455C206.909 2.96402 208.05 2.04072 209.471 1.43466C210.891 0.819128 212.459 0.511363 214.173 0.511363C216.057 0.511363 217.724 0.823863 219.173 1.44886C220.621 2.06439 221.758 2.95928 222.582 4.13352C223.406 5.30776 223.817 6.72348 223.817 8.38068C223.817 9.48864 223.633 10.4735 223.263 11.3352C222.904 12.1875 222.397 12.9451 221.744 13.608C221.09 14.2614 220.318 14.8532 219.428 15.3835C218.68 15.8286 218.065 16.2926 217.582 16.7756C217.108 17.2585 216.753 17.8172 216.516 18.4517C216.289 19.0862 216.171 19.8674 216.161 20.7955V21.2784H210.778ZM213.59 30.3693C212.643 30.3693 211.834 30.0379 211.161 29.375C210.498 28.7027 210.172 27.8977 210.181 26.9602C210.172 26.0322 210.498 25.2367 211.161 24.5739C211.834 23.911 212.643 23.5795 213.59 23.5795C214.49 23.5795 215.281 23.911 215.962 24.5739C216.644 25.2367 216.99 26.0322 216.999 26.9602C216.99 27.5852 216.824 28.1581 216.502 28.679C216.19 29.1903 215.778 29.6023 215.266 29.9148C214.755 30.2178 214.196 30.3693 213.59 30.3693Z" fill="#FD6916"/>
</svg>
